<svg width="90" height="90" viewBox="0 0 90 90" fill="none" xmlns="http://www.w3.org/2000/svg">
<circle cx="45" cy="45" r="45" fill="#24A0A2"/>
<g clip-path="url(#clip0_37_735)">
<path d="M75.9125 45.4563C75.9125 28.6339 62.2786 15 45.4563 15C28.6339 15 15 28.6339 15 45.4563C15 59.7327 24.8388 71.7248 38.1039 75.0203V54.7597H31.8223V45.4563H38.1039V41.447C38.1039 31.0847 42.7914 26.2783 52.9752 26.2783C54.9025 26.2783 58.2336 26.659 59.6018 27.0397V35.4628C58.888 35.3914 57.6388 35.3438 56.0803 35.3438C51.0835 35.3438 49.1562 37.2355 49.1562 42.1489V45.4563H59.1021L57.3889 54.7597H49.1443V75.6865C64.2297 73.8663 75.9125 61.0294 75.9125 45.4563Z" fill="#F6F5F4"/>
</g>
<defs>
<clipPath id="clip0_37_735">
<rect width="60.9125" height="60.9125" fill="white" transform="translate(15 15)"/>
</clipPath>
</defs>
</svg>
