<svg width="227" height="228" viewBox="0 0 227 228" fill="none" xmlns="http://www.w3.org/2000/svg">
<path d="M137.479 168.812C132.516 171.314 124.561 170.446 119.282 165.476C113.725 160.244 113.497 153.778 115.146 146.295C116.801 138.79 119.808 130.821 134.998 112.103C142.442 102.93 141.615 82.9152 139.134 74.5757C136.652 66.2362 128.712 61.8997 124.245 60.3986C119.282 58.7307 106.048 57.8967 98.6033 61.2325C91.159 64.5683 87.0233 68.7381 83.7147 71.2399C79.2016 74.6525 77.3553 74.5757 72.9618 74.5757C70.4803 74.5757 68.8271 74.5732 64.6903 72.9078C55.9785 69.4006 46.2019 67.0252 42.3574 85.417C40.3553 94.9946 40.0697 102.375 44.0117 110.435C46.9428 116.429 49.2288 120.104 54.7646 123.779C60.4815 127.573 64.1442 127.84 70.4803 130.45C79.8412 134.307 87.6796 133.735 94.4676 141.292C99.1232 146.475 102.739 157.137 102.739 157.137H7.61719C4.3086 157.137 1.00002 155.469 1.00002 151.299L1.82716 73.7417C1.82716 69.572 4.3086 67.9041 8.44434 67.9041H68.8261V7.02589C68.8261 2.85617 71.3075 1.18823 75.4432 1.18825H151.338C155.676 1.18825 157.331 3.69009 157.331 7.85983V64.9081C157.331 66.882 158.918 67.0486 159.66 67.9041C163.427 72.2506 165.602 74.5757 170.565 87.0849C175.528 99.5942 177.182 108.768 178.009 117.941C178.878 127.57 178.519 135.454 172.981 142.175C164.775 152.133 152.937 161.02 137.479 168.812Z" fill="#F14655"/>
<path d="M137.479 168.812C132.516 171.314 124.561 170.446 119.282 165.476C113.725 160.244 113.497 153.778 115.146 146.295C116.801 138.79 119.808 130.821 134.998 112.103C142.442 102.93 141.615 82.9152 139.134 74.5757C136.652 66.2362 128.712 61.8997 124.245 60.3986C119.282 58.7307 106.048 57.8967 98.6033 61.2325C91.159 64.5683 87.0233 68.7381 83.7147 71.2399C79.2016 74.6525 77.3553 74.5757 72.9618 74.5757C70.4803 74.5757 68.8271 74.5732 64.6903 72.9078C55.9785 69.4006 46.2019 67.0252 42.3574 85.417C40.3553 94.9946 40.0697 102.375 44.0117 110.435C46.9428 116.429 49.2288 120.104 54.7646 123.779C60.4815 127.573 64.1442 127.84 70.4803 130.45C79.8412 134.307 87.6796 133.735 94.4676 141.292C99.1232 146.475 102.739 157.137 102.739 157.137C104.912 170.91 103.551 178.243 94.4676 191.14C85.384 204.038 76.2704 208.653 76.2704 208.653C67.9989 213.657 67.1718 226.166 76.2704 227H149.886C158.158 227 158.985 222.83 158.985 213.657V156.948H219.367C225.041 157.09 226.154 155.51 225.984 148.609V75.2215C225.984 68.5499 225.157 67.7159 218.54 67.7159L159.66 67.9041C163.427 72.2506 165.602 74.5757 170.565 87.0849C175.528 99.5942 177.182 108.768 178.009 117.941C178.878 127.57 178.519 135.454 172.981 142.175C164.775 152.133 152.937 161.02 137.479 168.812Z" fill="#24A0A2"/>
<path d="M173.047 141.937C173.047 141.937 173.006 142.156 172.981 142.175M102.739 157.137C102.739 157.137 99.1232 146.475 94.4676 141.292C87.6796 133.735 79.8412 134.307 70.4803 130.45C64.1442 127.84 60.4815 127.573 54.7646 123.779C49.2288 120.104 46.9428 116.429 44.0117 110.435C40.0697 102.375 40.3553 94.9946 42.3574 85.417C46.2019 67.0252 55.9785 69.4006 64.6903 72.9078C68.8271 74.5732 70.4803 74.5757 72.9618 74.5757C77.3553 74.5757 79.2016 74.6525 83.7147 71.2399C87.0233 68.7381 91.159 64.5683 98.6033 61.2325C106.048 57.8967 119.282 58.7307 124.245 60.3986C128.712 61.8997 136.652 66.2362 139.134 74.5757C141.615 82.9152 142.442 102.93 134.998 112.103C119.808 130.821 116.801 138.79 115.146 146.295C113.497 153.778 113.725 160.244 119.282 165.476C124.561 170.446 132.516 171.314 137.479 168.812C152.937 161.02 164.775 152.133 172.981 142.175M102.739 157.137H7.61719C4.3086 157.137 1.00002 155.469 1.00002 151.299L1.82716 73.7417C1.82716 69.572 4.3086 67.9041 8.44434 67.9041H68.8261V7.02589C68.8261 2.85617 71.3075 1.18823 75.4432 1.18825H151.338C155.676 1.18825 157.331 3.69009 157.331 7.85983V64.9081C157.331 66.882 158.918 67.0486 159.66 67.9041M102.739 157.137C104.912 170.91 103.551 178.243 94.4676 191.14C85.384 204.038 76.2704 208.653 76.2704 208.653C67.9989 213.657 67.1718 226.166 76.2704 227H149.886C158.158 227 158.985 222.83 158.985 213.657V156.948H219.367C225.041 157.09 226.154 155.51 225.984 148.609V75.2215C225.984 68.5499 225.157 67.7159 218.54 67.7159L159.66 67.9041M172.981 142.175C178.519 135.454 178.878 127.57 178.009 117.941C177.182 108.768 175.528 99.5942 170.565 87.0849C165.602 74.5757 163.427 72.2506 159.66 67.9041" stroke="black"/>
<path d="M98.6033 85.2288C98.6033 82.2262 100.597 79.9948 103.566 80.2251C106.299 80.437 108.529 82.4653 108.529 85.2288C108.529 87.9922 106.299 90.0205 103.566 90.2325C100.597 90.4627 98.6033 88.2314 98.6033 85.2288Z" fill="#F14655" stroke="black"/>
<path d="M44.0116 80.2251C50.6288 84.3948 57.246 81.893 62.2089 71.8856" stroke="black"/>
</svg>
