<svg width="90" height="90" viewBox="0 0 90 90" fill="none" xmlns="http://www.w3.org/2000/svg">
<circle cx="45" cy="45" r="45" fill="#24A0A2"/>
<g clip-path="url(#clip0_37_731)">
<path d="M45.4698 29.2909C36.8224 29.2909 29.8474 36.3096 29.8474 45.011C29.8474 53.7125 36.8224 60.7311 45.4698 60.7311C54.1172 60.7311 61.0922 53.7125 61.0922 45.011C61.0922 36.3096 54.1172 29.2909 45.4698 29.2909ZM45.4698 55.2311C39.8816 55.2311 35.3132 50.6478 35.3132 45.011C35.3132 39.3742 39.868 34.7909 45.4698 34.7909C51.0716 34.7909 55.6264 39.3742 55.6264 45.011C55.6264 50.6478 51.058 55.2311 45.4698 55.2311ZM65.3752 28.6479C65.3752 30.6865 63.7436 32.3146 61.7313 32.3146C59.7054 32.3146 58.0874 30.6728 58.0874 28.6479C58.0874 26.623 59.719 24.9813 61.7313 24.9813C63.7436 24.9813 65.3752 26.623 65.3752 28.6479ZM75.7221 32.3693C75.491 27.4576 74.3761 23.1069 70.8002 19.5223C67.2379 15.9378 62.9142 14.8159 58.033 14.5696C53.0023 14.2823 37.9237 14.2823 32.893 14.5696C28.0254 14.8022 23.7017 15.9241 20.1258 19.5086C16.55 23.0932 15.4486 27.4439 15.2039 32.3556C14.9184 37.4178 14.9184 52.5906 15.2039 57.6527C15.435 62.5644 16.55 66.9151 20.1258 70.4997C23.7017 74.0843 28.0118 75.2061 32.893 75.4524C37.9237 75.7397 53.0023 75.7397 58.033 75.4524C62.9142 75.2198 67.2379 74.0979 70.8002 70.4997C74.3625 66.9151 75.4774 62.5644 75.7221 57.6527C76.0077 52.5906 76.0077 37.4314 75.7221 32.3693ZM69.223 63.0843C68.1625 65.7659 66.1094 67.8318 63.4309 68.9126C59.4199 70.5134 49.9023 70.144 45.4698 70.144C41.0373 70.144 31.5062 70.4997 27.5088 68.9126C24.8438 67.8455 22.7908 65.7796 21.7166 63.0843C20.1258 59.0483 20.4929 49.4712 20.4929 45.011C20.4929 40.5508 20.1394 30.9601 21.7166 26.9377C22.7772 24.2561 24.8302 22.1902 27.5088 21.1094C31.5198 19.5086 41.0373 19.878 45.4698 19.878C49.9023 19.878 59.4335 19.5223 63.4309 21.1094C66.0958 22.1765 68.1489 24.2425 69.223 26.9377C70.8138 30.9738 70.4467 40.5508 70.4467 45.011C70.4467 49.4712 70.8138 59.0619 69.223 63.0843Z" fill="#F6F5F4"/>
</g>
<defs>
<clipPath id="clip0_37_731">
<rect width="60.9125" height="70.0494" fill="white" transform="translate(15 10)"/>
</clipPath>
</defs>
</svg>
