<svg width="90" height="90" viewBox="0 0 90 90" fill="none" xmlns="http://www.w3.org/2000/svg">
<circle cx="45" cy="45" r="45" fill="#24A0A2"/>
<path d="M66.8636 23.2754C61.1585 17.5332 53.5607 14.375 45.4864 14.375C28.8203 14.375 15.2587 27.9922 15.2587 44.7266C15.2587 50.0723 16.6475 55.2949 19.2891 59.9023L15 75.625L31.0261 71.4004C35.4377 73.8203 40.4076 75.0918 45.4728 75.0918H45.4864C62.1388 75.0918 76 61.4746 76 44.7402C76 36.6328 72.5687 29.0176 66.8636 23.2754ZM45.4864 69.9785C40.9658 69.9785 36.5406 68.7617 32.6873 66.4648L31.775 65.918L22.271 68.4199L24.8036 59.1094L24.2045 58.1523C21.6855 54.1328 20.3647 49.498 20.3647 44.7266C20.3647 30.8223 31.6388 19.502 45.5 19.502C52.2127 19.502 58.517 22.127 63.2554 26.8984C67.9938 31.6699 70.9076 38 70.894 44.7402C70.894 58.6582 59.3339 69.9785 45.4864 69.9785ZM59.2659 51.084C58.517 50.7012 54.7998 48.8691 54.1054 48.623C53.4109 48.3633 52.9071 48.2402 52.4034 49.0059C51.8996 49.7715 50.4563 51.4668 50.0069 51.9863C49.5712 52.4922 49.1219 52.5605 48.373 52.1777C43.9342 49.9492 41.0203 48.1992 38.0929 43.1543C37.3167 41.8145 38.869 41.9102 40.3123 39.0117C40.5574 38.5059 40.4348 38.0684 40.2442 37.6855C40.0536 37.3027 38.5422 33.5703 37.9158 32.0527C37.3031 30.5762 36.6768 30.7812 36.2138 30.7539C35.7781 30.7266 35.2743 30.7266 34.7705 30.7266C34.2667 30.7266 33.4498 30.918 32.7554 31.6699C32.0609 32.4355 30.1138 34.2676 30.1138 38C30.1138 41.7324 32.8234 45.3418 33.1911 45.8477C33.5723 46.3535 38.515 54.0098 46.0991 57.3047C50.892 59.3828 52.771 59.5605 55.1674 59.2051C56.6243 58.9863 59.6335 57.373 60.2598 55.5957C60.8862 53.8184 60.8862 52.3008 60.6955 51.9863C60.5185 51.6445 60.0147 51.4531 59.2659 51.084Z" fill="#F6F5F4"/>
</svg>
